<?xml version="1.0" encoding="iso-8859-1"?>
<!-- Generator: Adobe Illustrator 19.0.0, SVG Export Plug-In . SVG Version: 6.00 Build 0)  -->
<svg version="1.1" id="Capa_1" xmlns="http://www.w3.org/2000/svg" xmlns:xlink="http://www.w3.org/1999/xlink" x="0px" y="0px"
	 viewBox="0 0 512 512" style="enable-background:new 0 0 512 512;" xml:space="preserve">
<g>
	<g>
		<path d="M457.687,287.948c-30.642-52.303-72.352-92.334-118.849-114.522c5.122-7.37,11.459-16.489,17.519-25.208l21.013-30.239
			C412.544,70.65,377.063,0,315.996,0c-20.178,0-38.957,7.849-52.903,22.106c-2.576,2.52-4.944,5.2-7.094,8.017
			c-2.149-2.817-4.518-5.497-7.095-8.018C234.96,7.849,216.18,0,196,0c-41.246,0-74.996,33.599-74.996,75.012v0.108
			c-0.004,14.424,5.582,40.106,51.028,98.822c-46.134,22.281-87.458,62.102-117.834,114.013C16.889,351.71,0.007,425.006,0.007,497
			c0,8.284,6.716,15,15,15h481.987c8.284,0,15-6.716,15-15C511.993,424.665,494.887,351.446,457.687,287.948z M151.003,75.128
			v-0.116c0-24.776,20.501-45.013,44.997-45.013c12.081,0,23.284,4.678,31.548,13.174c0.096,0.099,0.193,0.196,0.293,0.292
			C236.327,51.721,241,62.924,241,75.012c0,8.284,6.716,15,15,15c8.284,0,15-6.716,15-15c0-12.088,4.674-23.291,13.16-31.547
			c0.1-0.096,0.197-0.194,0.293-0.292c8.264-8.496,19.466-13.174,31.544-13.174c36.528,0,57.786,42.758,37.2,70.214
			c-0.108,0.144-0.214,0.291-0.317,0.439l-46.969,67.588c-15.263,7.12-32.437,10.868-49.911,10.868
			c-17.67,0-35.033-3.833-50.424-11.109C170.355,124.349,150.999,91.427,151.003,75.128z M183.062,201.876
			c-27.142,43.935-41.848,105.581-48.699,142.382c-1.712,9.199,5.338,17.747,14.764,17.747c7.084,0,13.387-5.041,14.73-12.257
			c12.059-64.779,31.543-116.98,54.072-145.52c7.526,1.965,15.249,3.341,23.071,4.119v138.656c0,8.284,6.716,15,15,15
			c8.284,0,15-6.716,15-15V208.348c7.853-0.781,15.607-2.157,23.16-4.134c22.485,28.552,41.939,80.756,53.99,145.534
			c1.515,8.142,9.343,13.519,17.49,12.004c8.145-1.515,13.519-9.346,12.004-17.49c-6.842-36.777-21.515-98.363-48.576-142.297
			c70.495,34.802,123.588,113.453,143.897,208.694c-0.109,0.098-0.22,0.193-0.329,0.292c-21.499,19.607-49.284,19.607-70.783,0
			c-32.96-30.06-77.252-30.06-110.212,0c-21.522,19.627-48.261,19.627-69.783,0c-32.96-30.06-77.252-30.06-110.212,0
			c-21.501,19.608-49.285,19.606-70.782,0.001c-0.528-0.482-1.068-0.948-1.605-1.417C59.746,314.66,112.763,236.442,183.062,201.876
			z M30.271,482.002L30.271,482.002c0.468-13.203,1.56-26.23,3.224-39.032c30.216,19.201,68.655,17.241,98.364-9.855
			c21.522-19.627,48.261-19.627,69.783,0c32.96,30.06,77.252,30.06,110.212,0c21.522-19.627,48.261-19.627,69.783,0
			c29.384,26.799,67.111,28.904,96.973,10.701c1.605,12.531,2.658,25.276,3.117,38.186H30.271z"/>
	</g>
</g>
<g>
</g>
<g>
</g>
<g>
</g>
<g>
</g>
<g>
</g>
<g>
</g>
<g>
</g>
<g>
</g>
<g>
</g>
<g>
</g>
<g>
</g>
<g>
</g>
<g>
</g>
<g>
</g>
<g>
</g>
</svg>
