<?xml version="1.0" encoding="iso-8859-1"?>
<!-- Generator: Adobe Illustrator 19.0.0, SVG Export Plug-In . SVG Version: 6.00 Build 0)  -->
<svg version="1.1" id="Capa_1" xmlns="http://www.w3.org/2000/svg" xmlns:xlink="http://www.w3.org/1999/xlink" x="0px" y="0px"
	 viewBox="0 0 512 512" style="enable-background:new 0 0 512 512;" xml:space="preserve">
<g>
	<g>
		<path d="M365.257,0H146.743c-58.226,0-105.6,47.374-105.6,105.6v348.585c0,5.047,4.096,9.143,9.143,9.143s9.143-4.096,9.143-9.143
			V105.6c0-48.146,39.168-87.314,87.314-87.314h218.514c48.146,0,87.314,39.168,87.314,87.314v351.543
			c0,5.047,4.096,9.143,9.143,9.143c5.047,0,9.143-4.096,9.143-9.143V105.6C470.857,47.374,423.488,0,365.257,0z"/>
	</g>
</g>
<g>
	<g>
		<path d="M376.722,466.286H135.227c-5.047,0-9.143,4.096-9.143,9.143s4.096,9.143,9.143,9.143h241.495
			c5.051,0,9.143-4.096,9.143-9.143S381.769,466.286,376.722,466.286z"/>
	</g>
</g>
<g>
	<g>
		<path d="M132.571,182.857c-5.047,0-9.143,4.096-9.143,9.143v310.857c0,5.047,4.096,9.143,9.143,9.143
			c5.047,0,9.143-4.096,9.143-9.143V192C141.714,186.953,137.618,182.857,132.571,182.857z"/>
	</g>
</g>
<g>
	<g>
		<path d="M379.429,182.857c-5.047,0-9.143,4.096-9.143,9.143v310.857c0,5.047,4.096,9.143,9.143,9.143s9.143-4.096,9.143-9.143V192
			C388.571,186.953,384.475,182.857,379.429,182.857z"/>
	</g>
</g>
<g>
	<g>
		<path d="M342.857,0H169.143C164.096,0,160,4.096,160,9.143c0,50.414,43.063,91.429,96,91.429c52.933,0,96-41.015,96-91.429
			C352,4.096,347.904,0,342.857,0z M256,82.286c-39.561,0-72.315-27.968-77.111-64h154.222
			C328.311,54.318,295.561,82.286,256,82.286z"/>
	</g>
</g>
<g>
	<g>
		<path d="M230.459,286.107l-39.575-39.575c-3.429-3.429-9.499-3.429-12.928,0l-39.575,39.575c-3.57,3.57-3.57,9.358,0,12.928
			l39.575,39.575c1.714,1.714,4.041,2.679,6.464,2.679s4.75-0.965,6.464-2.679l39.575-39.575
			C234.03,295.465,234.03,289.678,230.459,286.107z M184.421,319.218l-26.647-26.647l26.642-26.647l26.647,26.647L184.421,319.218z"
			/>
	</g>
</g>
<g>
	<g>
		<path d="M303.602,286.107l-39.575-39.575c-3.57-3.57-9.358-3.57-12.928,0l-39.575,39.575c-1.714,1.714-2.679,4.041-2.679,6.464
			c0,2.423,0.965,4.75,2.679,6.464l39.575,39.575c1.783,1.787,4.123,2.679,6.464,2.679s4.677-0.891,6.464-2.679l39.575-39.575
			c1.714-1.714,2.679-4.041,2.679-6.464C306.281,290.149,305.317,287.822,303.602,286.107z M257.563,319.218l-26.647-26.647
			l26.647-26.642l26.647,26.642L257.563,319.218z"/>
	</g>
</g>
<g>
	<g>
		<path d="M267.031,331.822l-39.575-39.575c-3.429-3.429-9.499-3.429-12.928,0l-39.575,39.575c-3.57,3.57-3.57,9.358,0,12.928
			l39.575,39.575c1.714,1.714,4.041,2.679,6.464,2.679s4.75-0.965,6.464-2.679l39.575-39.575
			C270.597,341.179,270.597,335.392,267.031,331.822z M220.992,364.933l-26.647-26.647l26.642-26.647l26.647,26.647L220.992,364.933
			z"/>
	</g>
</g>
<g>
	<g>
		<path d="M340.174,331.822l-39.575-39.575c-3.57-3.57-9.358-3.57-12.928,0l-39.575,39.575c-3.57,3.57-3.57,9.358,0,12.928
			l39.575,39.575c1.787,1.787,4.123,2.679,6.464,2.679c2.341,0,4.677-0.891,6.464-2.679l39.575-39.575
			C343.744,341.179,343.744,335.392,340.174,331.822z M294.135,364.933l-26.647-26.647l26.647-26.647l26.647,26.647L294.135,364.933
			z"/>
	</g>
</g>
<g>
	<g>
		<path d="M376.745,286.107l-39.575-39.575c-3.57-3.57-9.358-3.57-12.928,0l-39.575,39.575c-1.714,1.714-2.679,4.041-2.679,6.464
			c0,2.423,0.965,4.75,2.679,6.464l39.575,39.575c1.787,1.787,4.123,2.679,6.464,2.679s4.677-0.891,6.464-2.679l39.575-39.575
			c1.714-1.714,2.679-4.041,2.679-6.464C379.424,290.149,378.459,287.822,376.745,286.107z M330.706,319.218l-26.647-26.647
			l26.647-26.642l26.647,26.642L330.706,319.218z"/>
	</g>
</g>
<g>
	<g>
		<path d="M230.459,377.536l-39.575-39.575c-3.429-3.429-9.499-3.429-12.928,0l-39.575,39.575c-3.57,3.57-3.57,9.358,0,12.928
			l39.575,39.575c1.714,1.714,4.041,2.679,6.464,2.679s4.75-0.965,6.464-2.679l39.575-39.575
			C234.03,386.894,234.03,381.106,230.459,377.536z M184.421,410.647L157.774,384l26.642-26.647L211.063,384L184.421,410.647z"/>
	</g>
</g>
<g>
	<g>
		<path d="M303.602,377.536l-39.575-39.575c-3.429-3.429-9.504-3.429-12.933,0l-39.575,39.575c-3.57,3.57-3.57,9.358,0,12.928
			l39.575,39.575c1.714,1.714,4.041,2.679,6.464,2.679c2.427,0,4.754-0.965,6.469-2.679l39.575-39.575
			c1.714-1.714,2.679-4.041,2.679-6.464S305.317,379.25,303.602,377.536z M257.563,410.647L230.917,384l26.642-26.647L284.21,384
			L257.563,410.647z"/>
	</g>
</g>
<g>
	<g>
		<path d="M376.741,377.536l-39.57-39.575c-1.714-1.714-4.041-2.679-6.464-2.679s-4.75,0.965-6.464,2.679l-39.575,39.575
			c-3.57,3.57-3.57,9.358,0,12.928l39.575,39.575c1.714,1.714,4.041,2.679,6.464,2.679s4.75-0.965,6.464-2.679l39.57-39.575
			C380.311,386.894,380.311,381.106,376.741,377.536z M330.706,410.647L304.059,384l26.647-26.647L357.349,384L330.706,410.647z"/>
	</g>
</g>
<g>
	<g>
		<path d="M132.571,448H50.286c-5.047,0-9.143,4.096-9.143,9.143v45.714c0,5.047,4.096,9.143,9.143,9.143h82.286
			c5.047,0,9.143-4.096,9.143-9.143v-45.714C141.714,452.096,137.618,448,132.571,448z M123.429,493.714h-64v-27.429h64V493.714z"/>
	</g>
</g>
<g>
	<g>
		<path d="M461.714,448h-82.286c-5.047,0-9.143,4.096-9.143,9.143v45.714c0,5.047,4.096,9.143,9.143,9.143h82.286
			c5.047,0,9.143-4.096,9.143-9.143v-45.714C470.857,452.096,466.761,448,461.714,448z M452.571,493.714h-64v-27.429h64V493.714z"/>
	</g>
</g>
<g>
</g>
<g>
</g>
<g>
</g>
<g>
</g>
<g>
</g>
<g>
</g>
<g>
</g>
<g>
</g>
<g>
</g>
<g>
</g>
<g>
</g>
<g>
</g>
<g>
</g>
<g>
</g>
<g>
</g>
</svg>
