<?xml version="1.0" encoding="iso-8859-1"?>
<!-- Generator: Adobe Illustrator 19.0.0, SVG Export Plug-In . SVG Version: 6.00 Build 0)  -->
<svg version="1.1" id="Capa_1" xmlns="http://www.w3.org/2000/svg" xmlns:xlink="http://www.w3.org/1999/xlink" x="0px" y="0px"
	 viewBox="0 0 512 512" style="enable-background:new 0 0 512 512;" xml:space="preserve">
<g>
	<g>
		<path d="M401.067,34.133c-4.71,0-8.533,3.814-8.533,8.533V76.8c0,4.719,3.823,8.533,8.533,8.533s8.533-3.814,8.533-8.533V42.667
			C409.6,37.948,405.777,34.133,401.067,34.133z" fill=""/>
	</g>
</g>
<g>
	<g>
		<path d="M119.467,34.133c-4.71,0-8.533,3.814-8.533,8.533V76.8c0,4.719,3.823,8.533,8.533,8.533S128,81.519,128,76.8V42.667
			C128,37.948,124.177,34.133,119.467,34.133z"/>
	</g>
</g>
<g>
	<g>
		<path d="M51.2,443.733c-18.825,0-34.133,15.309-34.133,34.133S32.375,512,51.2,512s34.133-15.309,34.133-34.133
			S70.025,443.733,51.2,443.733z M51.2,494.933c-9.412,0-17.067-7.654-17.067-17.067S41.788,460.8,51.2,460.8
			c9.412,0,17.067,7.654,17.067,17.067S60.612,494.933,51.2,494.933z"/>
	</g>
</g>
<g>
	<g>
		<path d="M93.867,418.133H8.533c-4.71,0-8.533,3.814-8.533,8.533v25.6c0,4.719,3.823,8.533,8.533,8.533h85.333
			c4.71,0,8.533-3.814,8.533-8.533v-25.6C102.4,421.948,98.577,418.133,93.867,418.133z M85.333,443.733H17.067V435.2h68.267
			V443.733z"/>
	</g>
</g>
<g>
	<g>
		<path d="M68.267,34.133H34.133c-4.71,0-8.533,3.814-8.533,8.533v384c0,4.719,3.823,8.533,8.533,8.533h34.133
			c4.71,0,8.533-3.814,8.533-8.533v-384C76.8,37.948,72.977,34.133,68.267,34.133z M59.733,418.133H42.667V51.2h17.067V418.133z"/>
	</g>
</g>
<g>
	<g>
		<path d="M460.8,443.733c-18.825,0-34.133,15.309-34.133,34.133S441.975,512,460.8,512c18.825,0,34.133-15.309,34.133-34.133
			S479.625,443.733,460.8,443.733z M460.8,494.933c-9.412,0-17.067-7.654-17.067-17.067S451.388,460.8,460.8,460.8
			c9.412,0,17.067,7.654,17.067,17.067S470.212,494.933,460.8,494.933z"/>
	</g>
</g>
<g>
	<g>
		<path d="M503.467,418.133h-85.333c-4.71,0-8.533,3.814-8.533,8.533v25.6c0,4.719,3.823,8.533,8.533,8.533h85.333
			c4.71,0,8.533-3.814,8.533-8.533v-25.6C512,421.948,508.177,418.133,503.467,418.133z M494.933,443.733h-68.267V435.2h68.267
			V443.733z"/>
	</g>
</g>
<g>
	<g>
		<path d="M477.867,34.133h-34.133c-4.71,0-8.533,3.814-8.533,8.533v384c0,4.719,3.823,8.533,8.533,8.533h34.133
			c4.71,0,8.533-3.814,8.533-8.533v-384C486.4,37.948,482.577,34.133,477.867,34.133z M469.333,418.133h-17.067V51.2h17.067V418.133
			z"/>
	</g>
</g>
<g>
	<g>
		<path d="M486.4,0H25.6C11.486,0,0,11.486,0,25.6s11.486,25.6,25.6,25.6h460.8c14.114,0,25.6-11.486,25.6-25.6S500.514,0,486.4,0z
			 M486.4,34.133H25.6c-4.71,0-8.533-3.823-8.533-8.533c0-4.71,3.823-8.533,8.533-8.533h460.8c4.71,0,8.533,3.823,8.533,8.533
			C494.933,30.31,491.11,34.133,486.4,34.133z"/>
	</g>
</g>
<g>
	<g>
		<path d="M162.133,34.133c-4.71,0-8.533,3.814-8.533,8.533v51.2c0,4.719,3.823,8.533,8.533,8.533c4.71,0,8.533-3.814,8.533-8.533
			v-51.2C170.667,37.948,166.844,34.133,162.133,34.133z"/>
	</g>
</g>
<g>
	<g>
		<path d="M162.133,119.467c-45.935,0-76.8,17.152-76.8,42.667V179.2c0,4.719,3.823,8.533,8.533,8.533h17.067v59.733
			c0,4.719,3.823,8.533,8.533,8.533H204.8c4.71,0,8.533-3.814,8.533-8.533v-59.733H230.4c4.71,0,8.533-3.814,8.533-8.533v-17.067
			C238.933,136.619,208.068,119.467,162.133,119.467z M221.867,170.667H204.8c-4.71,0-8.533,3.814-8.533,8.533v59.733H128V179.2
			c0-4.719-3.823-8.533-8.533-8.533H102.4v-8.533c0-12.407,20.932-25.6,59.733-25.6s59.733,13.193,59.733,25.6V170.667z"/>
	</g>
</g>
<g>
	<g>
		<path d="M221.867,119.467c-11.375,0-22.042,1.075-31.693,3.183c-3.917,0.862-6.707,4.326-6.707,8.337
			c0,4.011,2.79,7.475,6.707,8.337c19.251,4.224,31.693,13.175,31.693,22.81v8.533H204.8c-4.71,0-8.533,3.814-8.533,8.533v68.267
			c0,4.719,3.823,8.533,8.533,8.533h59.733c4.71,0,8.533-3.814,8.533-8.533v-59.733h17.067c4.71,0,8.533-3.814,8.533-8.533v-17.067
			C298.667,136.619,267.802,119.467,221.867,119.467z M281.6,170.667h-17.067c-4.71,0-8.533,3.814-8.533,8.533v59.733h-42.667v-51.2
			H230.4c4.71,0,8.533-3.814,8.533-8.533v-17.067c0-9.813-4.736-18.577-13.38-25.557c36.437,0.811,56.047,13.551,56.047,25.557
			V170.667z"/>
	</g>
</g>
<g>
	<g>
		<path d="M281.6,119.467c-11.375,0-22.042,1.075-31.693,3.183c-3.917,0.862-6.707,4.326-6.707,8.337
			c0,4.011,2.79,7.475,6.707,8.337c19.251,4.224,31.693,13.175,31.693,22.81v8.533h-17.067c-4.71,0-8.533,3.814-8.533,8.533v68.267
			c0,4.719,3.823,8.533,8.533,8.533h59.733c4.71,0,8.533-3.814,8.533-8.533v-59.733h17.067c4.71,0,8.533-3.814,8.533-8.533v-17.067
			C358.4,136.619,327.535,119.467,281.6,119.467z M341.333,170.667h-17.067c-4.71,0-8.533,3.814-8.533,8.533v59.733h-42.667v-51.2
			h17.067c4.71,0,8.533-3.814,8.533-8.533v-17.067c0-9.813-4.736-18.577-13.38-25.557c36.437,0.811,56.047,13.551,56.047,25.557
			V170.667z"/>
	</g>
</g>
<g>
	<g>
		<path d="M162.133,85.333c-4.71,0-8.533,3.814-8.533,8.533c0,4.719,3.823,8.533,8.533,8.533c4.71,0,8.533,3.823,8.533,8.533
			s-3.823,8.533-8.533,8.533c-4.71,0-8.533-3.823-8.533-8.533c0-4.719-3.823-8.533-8.533-8.533c-4.71,0-8.533,3.814-8.533,8.533
			c0,14.114,11.486,25.6,25.6,25.6s25.6-11.486,25.6-25.6S176.247,85.333,162.133,85.333z"/>
	</g>
</g>
<g>
	<g>
		<path d="M230.4,34.133c-4.71,0-8.533,3.814-8.533,8.533v51.2c0,4.719,3.823,8.533,8.533,8.533s8.533-3.814,8.533-8.533v-51.2
			C238.933,37.948,235.11,34.133,230.4,34.133z"/>
	</g>
</g>
<g>
	<g>
		<path d="M298.667,34.133c-4.71,0-8.533,3.814-8.533,8.533v51.2c0,4.719,3.823,8.533,8.533,8.533s8.533-3.814,8.533-8.533v-51.2
			C307.2,37.948,303.377,34.133,298.667,34.133z"/>
	</g>
</g>
<g>
	<g>
		<path d="M341.333,119.467c-11.375,0-22.042,1.075-31.693,3.183c-3.917,0.862-6.707,4.326-6.707,8.337
			c0,4.011,2.79,7.475,6.707,8.337c19.251,4.224,31.693,13.175,31.693,22.81v8.533h-17.067c-4.71,0-8.533,3.814-8.533,8.533v68.267
			c0,4.719,3.823,8.533,8.533,8.533H384c4.71,0,8.533-3.814,8.533-8.533v-59.733H409.6c4.71,0,8.533-3.814,8.533-8.533v-17.067
			C418.133,136.619,387.268,119.467,341.333,119.467z M401.067,170.667H384c-4.71,0-8.533,3.814-8.533,8.533v59.733H332.8v-51.2
			h17.067c4.71,0,8.533-3.814,8.533-8.533v-17.067c0-9.813-4.736-18.577-13.38-25.557c36.437,0.811,56.047,13.551,56.047,25.557
			V170.667z"/>
	</g>
</g>
<g>
	<g>
		<path d="M366.933,34.133c-4.71,0-8.533,3.814-8.533,8.533v51.2c0,4.719,3.823,8.533,8.533,8.533s8.533-3.814,8.533-8.533v-51.2
			C375.467,37.948,371.644,34.133,366.933,34.133z"/>
	</g>
</g>
<g>
	<g>
		<path d="M443.733,349.867H68.267c-4.71,0-8.533,3.814-8.533,8.533v34.133c0,4.719,3.823,8.533,8.533,8.533h375.467
			c4.71,0,8.533-3.814,8.533-8.533V358.4C452.267,353.681,448.444,349.867,443.733,349.867z M435.2,384H76.8v-17.067h358.4V384z"/>
	</g>
</g>
<g>
	<g>
		<path d="M401.067,315.733h-102.4c-4.71,0-8.533,3.814-8.533,8.533V358.4c0,4.719,3.823,8.533,8.533,8.533h102.4
			c4.71,0,8.533-3.814,8.533-8.533v-34.133C409.6,319.548,405.777,315.733,401.067,315.733z M392.533,349.867H307.2V332.8h85.333
			V349.867z"/>
	</g>
</g>
<g>
	<g>
		<path d="M384,281.6h-68.267c-4.71,0-8.533,3.814-8.533,8.533v34.133c0,4.719,3.823,8.533,8.533,8.533H384
			c4.71,0,8.533-3.814,8.533-8.533v-34.133C392.533,285.414,388.71,281.6,384,281.6z M375.467,315.733h-51.2v-17.067h51.2V315.733z"
			/>
	</g>
</g>
<g>
	<g>
		<path d="M264.533,315.733h-51.2c-4.71,0-8.533,3.814-8.533,8.533V358.4c0,4.719,3.823,8.533,8.533,8.533h51.2
			c4.71,0,8.533-3.814,8.533-8.533v-34.133C273.067,319.548,269.244,315.733,264.533,315.733z M256,349.867h-34.133V332.8H256
			V349.867z"/>
	</g>
</g>
<g>
	<g>
		<path d="M238.933,273.067c-4.71,0-8.533,3.814-8.533,8.533v42.667c0,4.719,3.823,8.533,8.533,8.533s8.533-3.814,8.533-8.533V281.6
			C247.467,276.881,243.644,273.067,238.933,273.067z"/>
	</g>
</g>
<g>
	<g>
		<path d="M278.187,283.315c-3.763-2.816-9.114-2.065-11.947,1.707l-25.6,34.133c-2.825,3.763-2.065,9.114,1.707,11.938
			c1.536,1.152,3.328,1.707,5.111,1.707c2.594,0,5.163-1.178,6.835-3.413l25.6-34.133
			C282.718,291.49,281.958,286.14,278.187,283.315z"/>
	</g>
</g>
<g>
	<g>
		<path d="M237.227,319.155l-25.6-34.133c-2.825-3.772-8.175-4.523-11.947-1.707c-3.772,2.824-4.531,8.175-1.707,11.938l25.6,34.133
			c1.681,2.236,4.241,3.413,6.835,3.413c1.775,0,3.575-0.555,5.111-1.707C239.292,328.269,240.051,322.918,237.227,319.155z"/>
	</g>
</g>
<g>
	<g>
		<path d="M136.533,273.067H102.4c-4.71,0-8.533,3.814-8.533,8.533v76.8c0,4.719,3.823,8.533,8.533,8.533h34.133
			c4.71,0,8.533-3.814,8.533-8.533v-76.8C145.067,276.881,141.244,273.067,136.533,273.067z M128,349.867h-17.067v-59.733H128
			V349.867z"/>
	</g>
</g>
<g>
	<g>
		<path d="M170.667,290.133h-34.133c-4.71,0-8.533,3.814-8.533,8.533V358.4c0,4.719,3.823,8.533,8.533,8.533h34.133
			c4.71,0,8.533-3.814,8.533-8.533v-59.733C179.2,293.948,175.377,290.133,170.667,290.133z M162.133,349.867h-17.067V307.2h17.067
			V349.867z"/>
	</g>
</g>
<g>
	<g>
		<path d="M230.4,85.333c-4.71,0-8.533,3.814-8.533,8.533c0,4.719,3.823,8.533,8.533,8.533s8.533,3.823,8.533,8.533
			s-3.823,8.533-8.533,8.533s-8.533-3.823-8.533-8.533c0-4.719-3.823-8.533-8.533-8.533c-4.71,0-8.533,3.814-8.533,8.533
			c0,14.114,11.486,25.6,25.6,25.6s25.6-11.486,25.6-25.6S244.514,85.333,230.4,85.333z"/>
	</g>
</g>
<g>
	<g>
		<path d="M298.667,85.333c-4.71,0-8.533,3.814-8.533,8.533c0,4.719,3.823,8.533,8.533,8.533s8.533,3.823,8.533,8.533
			s-3.823,8.533-8.533,8.533s-8.533-3.823-8.533-8.533c0-4.719-3.823-8.533-8.533-8.533s-8.533,3.814-8.533,8.533
			c0,14.114,11.486,25.6,25.6,25.6s25.6-11.486,25.6-25.6S312.781,85.333,298.667,85.333z"/>
	</g>
</g>
<g>
	<g>
		<path d="M366.933,85.333c-4.71,0-8.533,3.814-8.533,8.533c0,4.719,3.823,8.533,8.533,8.533s8.533,3.823,8.533,8.533
			s-3.823,8.533-8.533,8.533s-8.533-3.823-8.533-8.533c0-4.719-3.823-8.533-8.533-8.533s-8.533,3.814-8.533,8.533
			c0,14.114,11.486,25.6,25.6,25.6s25.6-11.486,25.6-25.6S381.047,85.333,366.933,85.333z"/>
	</g>
</g>
<g>
</g>
<g>
</g>
<g>
</g>
<g>
</g>
<g>
</g>
<g>
</g>
<g>
</g>
<g>
</g>
<g>
</g>
<g>
</g>
<g>
</g>
<g>
</g>
<g>
</g>
<g>
</g>
<g>
</g>
</svg>
